<?xml version="1.0" encoding="utf-8" ?>
<svg baseProfile="full" height="500" version="1.1" width="800" xmlns="http://www.w3.org/2000/svg" xmlns:ev="http://www.w3.org/2001/xml-events" xmlns:xlink="http://www.w3.org/1999/xlink"><defs /><rect fill="#ffffff" height="500" width="800" x="0" y="0" /><text fill="#2c3e50" font-size="20" font-weight="bold" text-anchor="middle" x="400" y="35">7 种触发器对比</text><rect fill="#34495e" height="40" width="120" x="0" y="60" /><text fill="white" font-size="14" font-weight="bold" text-anchor="middle" x="50" y="85">触发器类型</text><rect fill="#34495e" height="40" width="280" x="120" y="60" /><text fill="white" font-size="14" font-weight="bold" text-anchor="middle" x="170" y="85">适用场景</text><rect fill="#34495e" height="40" width="120" x="400" y="60" /><text fill="white" font-size="14" font-weight="bold" text-anchor="middle" x="450" y="85">配置难度</text><rect fill="#34495e" height="40" width="120" x="520" y="60" /><text fill="white" font-size="14" font-weight="bold" text-anchor="middle" x="570" y="85">响应速度</text><rect fill="#ecf0f1" height="48" stroke="#bdc3c7" width="700" x="50" y="110" /><text fill="#2c3e50" font-size="13" text-anchor="middle" x="110" y="140">关键词触发</text><text fill="#2c3e50" font-size="13" text-anchor="middle" x="310" y="140">固定指令响应</text><text fill="#2c3e50" font-size="16" text-anchor="middle" x="510" y="140">⭐</text><text fill="#2c3e50" font-size="16" text-anchor="middle" x="630" y="140">⚡⚡⚡</text><rect fill="#ffffff" height="48" stroke="#bdc3c7" width="700" x="50" y="160" /><text fill="#2c3e50" font-size="13" text-anchor="middle" x="110" y="190">正则触发</text><text fill="#2c3e50" font-size="13" text-anchor="middle" x="310" y="190">结构化参数</text><text fill="#2c3e50" font-size="16" text-anchor="middle" x="510" y="190">⭐⭐</text><text fill="#2c3e50" font-size="16" text-anchor="middle" x="630" y="190">⚡⚡⚡</text><rect fill="#ecf0f1" height="48" stroke="#bdc3c7" width="700" x="50" y="210" /><text fill="#2c3e50" font-size="13" text-anchor="middle" x="110" y="240">意图触发</text><text fill="#2c3e50" font-size="13" text-anchor="middle" x="310" y="240">自然语言</text><text fill="#2c3e50" font-size="16" text-anchor="middle" x="510" y="240">⭐⭐⭐</text><text fill="#2c3e50" font-size="16" text-anchor="middle" x="630" y="240">⚡⚡</text><rect fill="#ffffff" height="48" stroke="#bdc3c7" width="700" x="50" y="260" /><text fill="#2c3e50" font-size="13" text-anchor="middle" x="110" y="290">上下文触发</text><text fill="#2c3e50" font-size="13" text-anchor="middle" x="310" y="290">多轮对话</text><text fill="#2c3e50" font-size="16" text-anchor="middle" x="510" y="290">⭐⭐⭐⭐</text><text fill="#2c3e50" font-size="16" text-anchor="middle" x="630" y="290">⚡⚡</text><rect fill="#ecf0f1" height="48" stroke="#bdc3c7" width="700" x="50" y="310" /><text fill="#2c3e50" font-size="13" text-anchor="middle" x="110" y="340">时间触发</text><text fill="#2c3e50" font-size="13" text-anchor="middle" x="310" y="340">定时任务</text><text fill="#2c3e50" font-size="16" text-anchor="middle" x="510" y="340">⭐⭐</text><text fill="#2c3e50" font-size="16" text-anchor="middle" x="630" y="340">⚡⚡⚡</text><rect fill="#ffffff" height="48" stroke="#bdc3c7" width="700" x="50" y="360" /><text fill="#2c3e50" font-size="13" text-anchor="middle" x="110" y="390">事件触发</text><text fill="#2c3e50" font-size="13" text-anchor="middle" x="310" y="390">外部集成</text><text fill="#2c3e50" font-size="16" text-anchor="middle" x="510" y="390">⭐⭐⭐</text><text fill="#2c3e50" font-size="16" text-anchor="middle" x="630" y="390">⚡⚡⚡</text><rect fill="#ecf0f1" height="48" stroke="#bdc3c7" width="700" x="50" y="410" /><text fill="#2c3e50" font-size="13" text-anchor="middle" x="110" y="440">组合触发</text><text fill="#2c3e50" font-size="13" text-anchor="middle" x="310" y="440">复杂条件</text><text fill="#2c3e50" font-size="16" text-anchor="middle" x="510" y="440">⭐⭐⭐⭐⭐</text><text fill="#2c3e50" font-size="16" text-anchor="middle" x="630" y="440">⚡</text></svg>