<?xml version="1.0" encoding="utf-8" ?>
<svg baseProfile="full" height="700" version="1.1" width="900" xmlns="http://www.w3.org/2000/svg" xmlns:ev="http://www.w3.org/2001/xml-events" xmlns:xlink="http://www.w3.org/1999/xlink"><defs /><rect fill="#ffffff" height="700" width="900" x="0" y="0" /><text fill="#2c3e50" font-size="22" font-weight="bold" text-anchor="middle" x="450" y="30">触发器选择决策树</text><rect fill="#3498db" height="60" opacity="0.9" rx="8" width="200" x="350.0" y="50.0" /><text fill="white" font-size="13" text-anchor="middle" x="450" y="85">你的需求是什么？</text><rect fill="#e74c3c" height="50" opacity="0.9" rx="8" width="140" x="80.0" y="155.0" /><text fill="white" font-size="13" text-anchor="middle" x="150" y="185">简单指令响应？</text><rect fill="#e74c3c" height="50" opacity="0.9" rx="8" width="140" x="380.0" y="155.0" /><text fill="white" font-size="13" text-anchor="middle" x="450" y="185">需要提取参数？</text><rect fill="#e74c3c" height="50" opacity="0.9" rx="8" width="140" x="680.0" y="155.0" /><text fill="white" font-size="13" text-anchor="middle" x="750" y="185">表达方式多样？</text><rect fill="#f39c12" height="50" opacity="0.9" rx="8" width="140" x="30.0" y="255.0" /><text fill="white" font-size="13" text-anchor="middle" x="100" y="285">依赖对话历史？</text><rect fill="#f39c12" height="50" opacity="0.9" rx="8" width="140" x="130.0" y="255.0" /><text fill="white" font-size="13" text-anchor="middle" x="200" y="285">定时任务？</text><rect fill="#f39c12" height="50" opacity="0.9" rx="8" width="140" x="330.0" y="255.0" /><text fill="white" font-size="13" text-anchor="middle" x="400" y="285">响应外部事件？</text><rect fill="#f39c12" height="50" opacity="0.9" rx="8" width="140" x="430.0" y="255.0" /><text fill="white" font-size="13" text-anchor="middle" x="500" y="285">多重条件？</text><rect fill="#f39c12" height="50" opacity="0.9" rx="8" width="140" x="630.0" y="255.0" /><text fill="white" font-size="13" text-anchor="middle" x="700" y="285">自然语言理解？</text><rect fill="#f39c12" height="50" opacity="0.9" rx="8" width="140" x="730.0" y="255.0" /><text fill="white" font-size="13" text-anchor="middle" x="800" y="285">复杂业务逻辑？</text><rect fill="#2ecc71" height="40" opacity="0.9" rx="8" width="100" x="100.0" y="360.0" /><text fill="white" font-size="13" text-anchor="middle" x="150" y="385">关键词触发</text><rect fill="#2ecc71" height="40" opacity="0.9" rx="8" width="100" x="200.0" y="360.0" /><text fill="white" font-size="13" text-anchor="middle" x="250" y="385">正则触发</text><rect fill="#2ecc71" height="40" opacity="0.9" rx="8" width="100" x="400.0" y="360.0" /><text fill="white" font-size="13" text-anchor="middle" x="450" y="385">上下文触发</text><rect fill="#2ecc71" height="40" opacity="0.9" rx="8" width="100" x="500.0" y="360.0" /><text fill="white" font-size="13" text-anchor="middle" x="550" y="385">时间触发</text><rect fill="#2ecc71" height="40" opacity="0.9" rx="8" width="100" x="600.0" y="360.0" /><text fill="white" font-size="13" text-anchor="middle" x="650" y="385">事件触发</text><rect fill="#2ecc71" height="40" opacity="0.9" rx="8" width="100" x="700.0" y="360.0" /><text fill="white" font-size="13" text-anchor="middle" x="750" y="385">意图触发</text><rect fill="#2ecc71" height="40" opacity="0.9" rx="8" width="100" x="800.0" y="360.0" /><text fill="white" font-size="13" text-anchor="middle" x="850" y="385">组合触发</text><line opacity="0.6" stroke="#95a5a6" stroke-width="2" x1="450" x2="150" y1="140" y2="180" /><line opacity="0.6" stroke="#95a5a6" stroke-width="2" x1="450" x2="450" y1="140" y2="180" /><line opacity="0.6" stroke="#95a5a6" stroke-width="2" x1="450" x2="750" y1="140" y2="180" /><line opacity="0.6" stroke="#95a5a6" stroke-width="2" x1="150" x2="100" y1="230" y2="280" /><line opacity="0.6" stroke="#95a5a6" stroke-width="2" x1="150" x2="200" y1="230" y2="280" /><line opacity="0.6" stroke="#95a5a6" stroke-width="2" x1="450" x2="400" y1="230" y2="280" /><line opacity="0.6" stroke="#95a5a6" stroke-width="2" x1="450" x2="500" y1="230" y2="280" /><line opacity="0.6" stroke="#95a5a6" stroke-width="2" x1="750" x2="700" y1="230" y2="280" /><line opacity="0.6" stroke="#95a5a6" stroke-width="2" x1="750" x2="800" y1="230" y2="280" /><line opacity="0.6" stroke="#95a5a6" stroke-width="2" x1="100" x2="150" y1="330" y2="380" /><line opacity="0.6" stroke="#95a5a6" stroke-width="2" x1="200" x2="250" y1="330" y2="380" /><line opacity="0.6" stroke="#95a5a6" stroke-width="2" x1="400" x2="450" y1="330" y2="380" /><line opacity="0.6" stroke="#95a5a6" stroke-width="2" x1="500" x2="550" y1="330" y2="380" /><line opacity="0.6" stroke="#95a5a6" stroke-width="2" x1="600" x2="650" y1="330" y2="380" /><line opacity="0.6" stroke="#95a5a6" stroke-width="2" x1="700" x2="750" y1="330" y2="380" /><line opacity="0.6" stroke="#95a5a6" stroke-width="2" x1="800" x2="850" y1="330" y2="380" /></svg>