<?xml version="1.0" encoding="utf-8" ?>
<svg baseProfile="full" height="600" version="1.1" width="800" xmlns="http://www.w3.org/2000/svg" xmlns:ev="http://www.w3.org/2001/xml-events" xmlns:xlink="http://www.w3.org/1999/xlink"><defs /><rect fill="#f8f9fa" height="600" width="800" x="0" y="0" /><text fill="#2c3e50" font-size="24" font-weight="bold" text-anchor="middle" x="400" y="40">OpenClaw 7 种 Agent 触发器</text><rect fill="#3498db" height="80" opacity="0.9" rx="10" width="180" x="100" y="100" /><text fill="white" font-size="16" font-weight="bold" text-anchor="middle" x="190" y="145">关键词触发</text><rect fill="#e74c3c" height="80" opacity="0.9" rx="10" width="180" x="400" y="100" /><text fill="white" font-size="16" font-weight="bold" text-anchor="middle" x="490" y="145">正则触发</text><rect fill="#2ecc71" height="80" opacity="0.9" rx="10" width="180" x="700" y="100" /><text fill="white" font-size="16" font-weight="bold" text-anchor="middle" x="790" y="145">意图触发</text><rect fill="#f39c12" height="80" opacity="0.9" rx="10" width="180" x="100" y="250" /><text fill="white" font-size="16" font-weight="bold" text-anchor="middle" x="190" y="295">上下文触发</text><rect fill="#9b59b6" height="80" opacity="0.9" rx="10" width="180" x="400" y="250" /><text fill="white" font-size="16" font-weight="bold" text-anchor="middle" x="490" y="295">时间触发</text><rect fill="#1abc9c" height="80" opacity="0.9" rx="10" width="180" x="700" y="250" /><text fill="white" font-size="16" font-weight="bold" text-anchor="middle" x="790" y="295">事件触发</text><rect fill="#34495e" height="80" opacity="0.9" rx="10" width="180" x="400" y="400" /><text fill="white" font-size="16" font-weight="bold" text-anchor="middle" x="490" y="445">组合触发</text><circle cx="400" cy="300" fill="#ecf0f1" r="50" stroke="#34495e" stroke-width="3" /><text fill="#2c3e50" font-size="14" text-anchor="middle" x="400" y="295">Agent
调度中心</text><line opacity="0.5" stroke="#95a5a6" stroke-width="2" x1="190" x2="400" y1="140" y2="300" /><line opacity="0.5" stroke="#95a5a6" stroke-width="2" x1="490" x2="400" y1="140" y2="300" /><line opacity="0.5" stroke="#95a5a6" stroke-width="2" x1="790" x2="400" y1="140" y2="300" /><line opacity="0.5" stroke="#95a5a6" stroke-width="2" x1="190" x2="400" y1="290" y2="300" /><line opacity="0.5" stroke="#95a5a6" stroke-width="2" x1="490" x2="400" y1="290" y2="300" /><line opacity="0.5" stroke="#95a5a6" stroke-width="2" x1="790" x2="400" y1="290" y2="300" /><line opacity="0.5" stroke="#95a5a6" stroke-width="2" x1="490" x2="400" y1="440" y2="300" /></svg>