<svg xmlns="http://www.w3.org/2000/svg" viewBox="0 0 900 550">
  <defs>
    <linearGradient id="titleGrad" x1="0%" y1="0%" x2="100%" y2="0%">
      <stop offset="0%" style="stop-color:#2D3748;stop-opacity:1" />
      <stop offset="100%" style="stop-color:#1A202C;stop-opacity:1" />
    </linearGradient>
    <linearGradient id="barGrad" x1="0%" y1="0%" x2="100%" y2="0%">
      <stop offset="0%" style="stop-color:#48BB78;stop-opacity:1" />
      <stop offset="100%" style="stop-color:#2F855A;stop-opacity:1" />
    </linearGradient>
    <linearGradient id="barGrad2" x1="0%" y1="0%" x2="100%" y2="0%">
      <stop offset="0%" style="stop-color:#4299E1;stop-opacity:1" />
      <stop offset="100%" style="stop-color:#2B6CB0;stop-opacity:1" />
    </linearGradient>
  </defs>

  <!-- 背景 -->
  <rect width="900" height="550" fill="#F7FAFC"/>

  <!-- 标题 -->
  <rect x="0" y="0" width="900" height="60" fill="url(#titleGrad)"/>
  <text x="450" y="38" text-anchor="middle" font-family="Arial, sans-serif" font-size="22" font-weight="bold" fill="white">性能对比：文本提取速度 (5000 个元素)</text>

  <!-- 图表区域 -->
  <g transform="translate(80, 100)">
    <!-- Y 轴标签 -->
    <text x="-10" y="25" text-anchor="end" font-family="Arial" font-size="12" fill="#4A5568">Scrapling</text>
    <text x="-10" y="75" text-anchor="end" font-family="Arial" font-size="12" fill="#4A5568">Parsel/Scrapy</text>
    <text x="-10" y="125" text-anchor="end" font-family="Arial" font-size="12" fill="#4A5568">Raw Lxml</text>
    <text x="-10" y="175" text-anchor="end" font-family="Arial" font-size="12" fill="#4A5568">PyQuery</text>
    <text x="-10" y="225" text-anchor="end" font-family="Arial" font-size="12" fill="#4A5568">Selectolax</text>
    <text x="-10" y="275" text-anchor="end" font-family="Arial" font-size="12" fill="#4A5568">BS4 + Lxml</text>
    <text x="-10" y="325" text-anchor="end" font-family="Arial" font-size="12" fill="#4A5568">BS4 + html5lib</text>

    <!-- 条形图 -->
    <rect x="0" y="10" width="20" height="30" rx="3" fill="url(#barGrad)"/>
    <text x="30" y="30" font-family="Arial" font-size="12" fill="#2D3748" font-weight="bold">2.02 ms</text>

    <rect x="0" y="60" width="20" height="30" rx="3" fill="url(#barGrad2)"/>
    <text x="30" y="80" font-family="Arial" font-size="12" fill="#2D3748">2.04 ms</text>

    <rect x="0" y="110" width="25" height="30" rx="3" fill="url(#barGrad2)"/>
    <text x="35" y="130" font-family="Arial" font-size="12" fill="#2D3748">2.54 ms</text>

    <rect x="0" y="160" width="242" height="30" rx="3" fill="url(#barGrad2)"/>
    <text x="252" y="180" font-family="Arial" font-size="12" fill="#2D3748">24.17 ms</text>

    <rect x="0" y="210" width="826" height="30" rx="3" fill="url(#barGrad2)"/>
    <text x="836" y="230" font-family="Arial" font-size="12" fill="#2D3748">82.63 ms</text>

    <rect x="0" y="260" width="1584" height="30" rx="3" fill="#E53E3E"/>
    <text x="1594" y="280" font-family="Arial" font-size="12" fill="#2D3748">1584.31 ms</text>

    <rect x="0" y="310" width="3392" height="30" rx="3" fill="#E53E3E" opacity="0.5"/>
    <text x="3402" y="330" font-family="Arial" font-size="12" fill="#2D3748">3391.91 ms</text>

    <!-- X 轴 -->
    <line x1="0" y1="360" x2="750" y2="360" stroke="#CBD5E0" stroke-width="2"/>
    <text x="0" y="380" font-family="Arial" font-size="11" fill="#718096">0</text>
    <text x="200" y="380" font-family="Arial" font-size="11" fill="#718096">500ms</text>
    <text x="400" y="380" font-family="Arial" font-size="11" fill="#718096">1000ms</text>
    <text x="600" y="380" font-family="Arial" font-size="11" fill="#718096">1500ms</text>
    <text x="750" y="380" font-family="Arial" font-size="11" fill="#718096">2000ms+</text>
  </g>

  <!-- 结论框 -->
  <rect x="550" y="120" width="300" height="140" rx="10" fill="#FFFFFF" stroke="#48BB78" stroke-width="2"/>
  <text x="700" y="150" text-anchor="middle" font-family="Arial" font-size="16" font-weight="bold" fill="#2F855A">关键结论</text>
  <text x="700" y="180" text-anchor="middle" font-family="Arial" font-size="13" fill="#4A5568">Scrapling 解析速度</text>
  <text x="700" y="205" text-anchor="middle" font-family="Arial" font-size="24" font-weight="bold" fill="#2F855A">比 BS4 快 700 倍+</text>
  <text x="700" y="235" text-anchor="middle" font-family="Arial" font-size="13" fill="#4A5568">与 Scrapy 性能相当</text>
  <text x="700" y="255" text-anchor="middle" font-family="Arial" font-size="12" fill="#718096">基于 lxml 优化</text>
</svg>