<?xml version="1.0" encoding="UTF-8"?>
<svg width="900" height="400" viewBox="0 0 900 400" xmlns="http://www.w3.org/2000/svg">
  <defs>
    <linearGradient id="bgGrad" x1="0%" y1="0%" x2="100%" y2="100%">
      <stop offset="0%" style="stop-color:#0a1628"/>
      <stop offset="100%" style="stop-color:#1a2744"/>
    </linearGradient>
    <linearGradient id="blueGrad" x1="0%" y1="0%" x2="100%" y2="0%">
      <stop offset="0%" style="stop-color:#3b82f6"/>
      <stop offset="100%" style="stop-color:#60a5fa"/>
    </linearGradient>
    <linearGradient id="greenGrad" x1="0%" y1="0%" x2="100%" y2="0%">
      <stop offset="0%" style="stop-color:#10b981"/>
      <stop offset="100%" style="stop-color:#34d399"/>
    </linearGradient>
    <filter id="glow">
      <feGaussianBlur stdDeviation="3" result="coloredBlur"/>
      <feMerge>
        <feMergeNode in="coloredBlur"/>
        <feMergeNode in="SourceGraphic"/>
      </feMerge>
    </filter>
  </defs>

  <!-- Background -->
  <rect width="900" height="400" fill="url(#bgGrad)"/>

  <!-- Left side: Chat (ping-pong) -->
  <g transform="translate(225, 200)">
    <!-- User icon -->
    <circle cx="-140" cy="0" r="28" fill="#f59e0b" opacity="0.9"/>
    <text x="-140" y="6" text-anchor="middle" fill="#0a1628" font-family="system-ui, sans-serif" font-size="24" font-weight="700">U</text>
    <text x="-140" y="55" text-anchor="middle" fill="#94a3b8" font-family="system-ui, sans-serif" font-size="11" font-weight="500">USER</text>

    <!-- AI icon -->
    <circle cx="140" cy="0" r="28" fill="#3b82f6" opacity="0.9"/>
    <text x="140" y="6" text-anchor="middle" fill="#fff" font-family="system-ui, sans-serif" font-size="24" font-weight="700">AI</text>
    <text x="140" y="55" text-anchor="middle" fill="#94a3b8" font-family="system-ui, sans-serif" font-size="11" font-weight="500">AI</text>

    <!-- Ping-pong arrows -->
    <path d="M-105 0 L-60 -20 L-60 -8 L105 -8 L105 8 L-60 8 L-60 20 Z" fill="#f59e0b" opacity="0.6"/>
    <path d="M105 0 L60 20 L60 8 L-105 8 L-105 -8 L60 -8 L60 -20 Z" fill="#3b82f6" opacity="0.6"/>

    <!-- Labels on arrows -->
    <text x="0" y="-25" text-anchor="middle" fill="#fcd34d" font-family="system-ui, sans-serif" font-size="10" font-weight="500">Question</text>
    <text x="0" y="35" text-anchor="middle" fill="#93c5fd" font-family="system-ui, sans-serif" font-size="10" font-weight="500">Answer</text>

    <!-- Title -->
    <text x="0" y="-100" text-anchor="middle" fill="#fff" font-family="system-ui, sans-serif" font-size="16" font-weight="600">Chat 模式</text>
    <text x="0" y="-78" text-anchor="middle" fill="#94a3b8" font-family="system-ui, sans-serif" font-size="11">你问它答，像打乒乓球</text>

    <!-- Result box -->
    <rect x="-50" y="75" width="100" height="28" rx="4" fill="none" stroke="#ef4444" stroke-width="1.5" stroke-dasharray="4,2"/>
    <text x="0" y="93" text-anchor="middle" fill="#ef4444" font-family="system-ui, sans-serif" font-size="10">你自己做事</text>
  </g>

  <!-- Divider -->
  <line x1="450" y1="60" x2="450" y2="340" stroke="#334155" stroke-width="1" stroke-dasharray="8,4"/>

  <!-- Right side: Agent (goal to result) -->
  <g transform="translate(675, 200)">
    <!-- Goal input -->
    <rect x="-160" y="-25" width="70" height="50" rx="8" fill="#f59e0b" opacity="0.9"/>
    <text x="-125" y="5" text-anchor="middle" fill="#0a1628" font-family="system-ui, sans-serif" font-size="12" font-weight="700">Goal</text>

    <!-- Arrow 1 -->
    <path d="M-85 0 L-55 0" stroke="#60a5fa" stroke-width="3" marker-end="url(#arrow)"/>

    <!-- Agent brain -->
    <circle cx="0" cy="0" r="45" fill="url(#blueGrad)" filter="url(#glow)"/>
    <text x="0" y="-8" text-anchor="middle" fill="#fff" font-family="system-ui, sans-serif" font-size="11" font-weight="600">Observe</text>
    <text x="0" y="6" text-anchor="middle" fill="#fff" font-family="system-ui, sans-serif" font-size="11" font-weight="600">Think</text>
    <text x="0" y="20" text-anchor="middle" fill="#fff" font-family="system-ui, sans-serif" font-size="11" font-weight="600">Act</text>

    <!-- Circular arrows inside -->
    <path d="M-20 -5 A25 25 0 1 1 -20 5" fill="none" stroke="#fff" stroke-width="1.5" opacity="0.5"/>

    <!-- Arrow 2 -->
    <path d="M50 0 L80 0" stroke="#34d399" stroke-width="3"/>

    <!-- Result output -->
    <rect x="85" y="-25" width="70" height="50" rx="8" fill="url(#greenGrad)"/>
    <text x="120" y="5" text-anchor="middle" fill="#fff" font-family="system-ui, sans-serif" font-size="12" font-weight="700">Result</text>

    <!-- Title -->
    <text x="0" y="-100" text-anchor="middle" fill="#fff" font-family="system-ui, sans-serif" font-size="16" font-weight="600">Agent 模式</text>
    <text x="0" y="-78" text-anchor="middle" fill="#94a3b8" font-family="system-ui, sans-serif" font-size="11">给目标，它自己跑完整个流程</text>

    <!-- Auto execution indicators -->
    <g transform="translate(0, 85)">
      <rect x="-90" y="-12" width="180" height="24" rx="12" fill="#10b981" opacity="0.15"/>
      <text x="0" y="4" text-anchor="middle" fill="#34d399" font-family="system-ui, sans-serif" font-size="10" font-weight="500">自动规划 · 自动执行 · 自动交付</text>
    </g>
  </g>

  <!-- Arrow marker -->
  <defs>
    <marker id="arrow" markerWidth="10" markerHeight="10" refX="9" refY="3" orient="auto" markerUnits="strokeWidth">
      <path d="M0,0 L0,6 L9,3 z" fill="#60a5fa"/>
    </marker>
  </defs>

  <!-- Bottom insight -->
  <text x="450" y="375" text-anchor="middle" fill="#64748b" font-family="system-ui, sans-serif" font-size="11">用 Agent 的人和不用的人，效率差距是 10-20 倍</text>
</svg>