<?xml version="1.0" encoding="UTF-8"?>
<svg width="900" height="500" viewBox="0 0 900 500" xmlns="http://www.w3.org/2000/svg">
  <defs>
    <linearGradient id="bgGrad3" x1="0%" y1="0%" x2="100%" y2="100%">
      <stop offset="0%" style="stop-color:#0a1628"/>
      <stop offset="100%" style="stop-color:#1a2744"/>
    </linearGradient>
    <linearGradient id="step1Grad" x1="0%" y1="0%" x2="100%" y2="100%">
      <stop offset="0%" style="stop-color:#f59e0b"/>
      <stop offset="100%" style="stop-color:#fbbf24"/>
    </linearGradient>
    <linearGradient id="step2Grad" x1="0%" y1="0%" x2="100%" y2="100%">
      <stop offset="0%" style="stop-color:#8b5cf6"/>
      <stop offset="100%" style="stop-color:#a78bfa"/>
    </linearGradient>
    <linearGradient id="step3Grad" x1="0%" y1="0%" x2="100%" y2="100%">
      <stop offset="0%" style="stop-color:#3b82f6"/>
      <stop offset="100%" style="stop-color:#60a5fa"/>
    </linearGradient>
    <linearGradient id="step4Grad" x1="0%" y1="0%" x2="100%" y2="100%">
      <stop offset="0%" style="stop-color:#10b981"/>
      <stop offset="100%" style="stop-color:#34d399"/>
    </linearGradient>
    <linearGradient id="step5Grad" x1="0%" y1="0%" x2="100%" y2="100%">
      <stop offset="0%" style="stop-color:#ec4899"/>
      <stop offset="100%" style="stop-color:#f472b6"/>
    </linearGradient>
    <filter id="shadow">
      <feDropShadow dx="0" dy="4" stdDeviation="6" flood-color="#000" flood-opacity="0.3"/>
    </filter>
  </defs>

  <!-- Background -->
  <rect width="900" height="500" fill="url(#bgGrad3)"/>

  <!-- Title -->
  <text x="450" y="50" text-anchor="middle" fill="#fff" font-family="system-ui, sans-serif" font-size="22" font-weight="700">五步构建你的 AI 员工</text>
  <text x="450" y="75" text-anchor="middle" fill="#94a3b8" font-family="system-ui, sans-serif" font-size="12">文件夹 + Markdown = 可移植的 AI 资产</text>

  <!-- Step 1: agents.md -->
  <g transform="translate(100, 180)">
    <rect x="-60" y="-50" width="120" height="100" rx="12" fill="#1e293b" filter="url(#shadow)"/>
    <rect x="-45" y="-35" width="90" height="55" rx="4" fill="#0f172a"/>
    <text x="0" y="-10" text-anchor="middle" fill="#fbbf24" font-family="monospace" font-size="9">agents.md</text>
    <text x="0" y="8" text-anchor="middle" fill="#94a3b8" font-family="monospace" font-size="7">role: ...</text>
    <text x="0" y="18" text-anchor="middle" fill="#94a3b8" font-family="monospace" font-size="7">context: ...</text>
    <!-- Brain icon -->
    <circle cx="0" cy="-65" r="22" fill="url(#step1Grad)"/>
    <text x="0" y="-60" text-anchor="middle" fill="#0a1628" font-family="system-ui, sans-serif" font-size="18">🧠</text>
    <text x="0" y="75" text-anchor="middle" fill="#fff" font-family="system-ui, sans-serif" font-size="13" font-weight="600">大脑</text>
    <text x="0" y="95" text-anchor="middle" fill="#94a3b8" font-family="system-ui, sans-serif" font-size="10">System Prompt</text>
  </g>

  <!-- Arrow 1 -->
  <path d="M165 180 L210 180" stroke="#475569" stroke-width="2"/>
  <polygon points="215,180 205,175 205,185" fill="#475569"/>

  <!-- Step 2: memory.md -->
  <g transform="translate(280, 180)">
    <rect x="-60" y="-50" width="120" height="100" rx="12" fill="#1e293b" filter="url(#shadow)"/>
    <rect x="-45" y="-35" width="90" height="55" rx="4" fill="#0f172a"/>
    <text x="0" y="-10" text-anchor="middle" fill="#a78bfa" font-family="monospace" font-size="9">memory.md</text>
    <text x="0" y="8" text-anchor="middle" fill="#94a3b8" font-family="monospace" font-size="7">偏好: 口语化</text>
    <text x="0" y="18" text-anchor="middle" fill="#94a3b8" font-family="monospace" font-size="7">风格: 简洁</text>
    <!-- Memory icon -->
    <circle cx="0" cy="-65" r="22" fill="url(#step2Grad)"/>
    <text x="0" y="-60" text-anchor="middle" fill="#fff" font-family="system-ui, sans-serif" font-size="18">📝</text>
    <text x="0" y="75" text-anchor="middle" fill="#fff" font-family="system-ui, sans-serif" font-size="13" font-weight="600">记忆</text>
    <text x="0" y="95" text-anchor="middle" fill="#94a3b8" font-family="system-ui, sans-serif" font-size="10">持续学习</text>
  </g>

  <!-- Arrow 2 -->
  <path d="M345 180 L390 180" stroke="#475569" stroke-width="2"/>
  <polygon points="395,180 385,175 385,185" fill="#475569"/>

  <!-- Step 3: MCP -->
  <g transform="translate(460, 180)">
    <rect x="-60" y="-50" width="120" height="100" rx="12" fill="#1e293b" filter="url(#shadow)"/>
    <rect x="-45" y="-35" width="90" height="55" rx="4" fill="#0f172a"/>
    <text x="0" y="-10" text-anchor="middle" fill="#60a5fa" font-family="monospace" font-size="9">MCP</text>
    <!-- Connection lines -->
    <line x1="-30" y1="5" x2="-10" y2="5" stroke="#3b82f6" stroke-width="1"/>
    <line x1="-30" y1="12" x2="-10" y2="12" stroke="#3b82f6" stroke-width="1"/>
    <line x1="-30" y1="19" x2="-10" y2="19" stroke="#3b82f6" stroke-width="1"/>
    <circle cx="-5" cy="5" r="3" fill="#3b82f6"/>
    <circle cx="-5" cy="12" r="3" fill="#10b981"/>
    <circle cx="-5" cy="19" r="3" fill="#f59e0b"/>
    <!-- Plugin icon -->
    <circle cx="0" cy="-65" r="22" fill="url(#step3Grad)"/>
    <text x="0" y="-60" text-anchor="middle" fill="#fff" font-family="system-ui, sans-serif" font-size="18">🔌</text>
    <text x="0" y="75" text-anchor="middle" fill="#fff" font-family="system-ui, sans-serif" font-size="13" font-weight="600">工具</text>
    <text x="0" y="95" text-anchor="middle" fill="#94a3b8" font-family="system-ui, sans-serif" font-size="10">连接外部系统</text>
  </g>

  <!-- Arrow 3 -->
  <path d="M525 180 L570 180" stroke="#475569" stroke-width="2"/>
  <polygon points="575,180 565,175 565,185" fill="#475569"/>

  <!-- Step 4: Skills -->
  <g transform="translate(640, 180)">
    <rect x="-60" y="-50" width="120" height="100" rx="12" fill="#1e293b" filter="url(#shadow)"/>
    <rect x="-45" y="-35" width="90" height="55" rx="4" fill="#0f172a"/>
    <text x="0" y="-10" text-anchor="middle" fill="#34d399" font-family="monospace" font-size="9">skills/*.md</text>
    <text x="0" y="8" text-anchor="middle" fill="#94a3b8" font-family="monospace" font-size="7">写提案.skill</text>
    <text x="0" y="18" text-anchor="middle" fill="#94a3b8" font-family="monospace" font-size="7">早报.skill</text>
    <!-- Skill icon -->
    <circle cx="0" cy="-65" r="22" fill="url(#step4Grad)"/>
    <text x="0" y="-60" text-anchor="middle" fill="#0a1628" font-family="system-ui, sans-serif" font-size="18">⚡</text>
    <text x="0" y="75" text-anchor="middle" fill="#fff" font-family="system-ui, sans-serif" font-size="13" font-weight="600">技能</text>
    <text x="0" y="95" text-anchor="middle" fill="#94a3b8" font-family="system-ui, sans-serif" font-size="10">工作流复用</text>
  </g>

  <!-- Arrow 4 -->
  <path d="M705 180 L750 180" stroke="#475569" stroke-width="2"/>
  <polygon points="755,180 745,175 745,185" fill="#475569"/>

  <!-- Step 5: Automation -->
  <g transform="translate(820, 180)">
    <rect x="-60" y="-50" width="120" height="100" rx="12" fill="#1e293b" filter="url(#shadow)"/>
    <rect x="-45" y="-35" width="90" height="55" rx="4" fill="#0f172a"/>
    <text x="0" y="-5" text-anchor="middle" fill="#f472b6" font-family="monospace" font-size="8">schedule:</text>
    <text x="0" y="8" text-anchor="middle" fill="#94a3b8" font-family="monospace" font-size="7">daily: 9am</text>
    <text x="0" y="18" text-anchor="middle" fill="#94a3b8" font-family="monospace" font-size="7">interval: 3h</text>
    <!-- Clock icon -->
    <circle cx="0" cy="-65" r="22" fill="url(#step5Grad)"/>
    <text x="0" y="-60" text-anchor="middle" fill="#fff" font-family="system-ui, sans-serif" font-size="18">⏰</text>
    <text x="0" y="75" text-anchor="middle" fill="#fff" font-family="system-ui, sans-serif" font-size="13" font-weight="600">自动化</text>
    <text x="0" y="95" text-anchor="middle" fill="#94a3b8" font-family="system-ui, sans-serif" font-size="10">定时触发</text>
  </g>

  <!-- Bottom: Folder structure preview -->
  <g transform="translate(450, 380)">
    <rect x="-280" y="-50" width="560" height="110" rx="8" fill="#0f172a" stroke="#334155" stroke-width="1"/>
    <text x="-260" y="-25" fill="#64748b" font-family="monospace" font-size="10">📁 executive_assistant/</text>
    <text x="-240" y="-5" fill="#fbbf24" font-family="monospace" font-size="10">├── agents.md</text>
    <text x="-240" y="15" fill="#a78bfa" font-family="monospace" font-size="10">├── memory.md</text>
    <text x="-240" y="35" fill="#60a5fa" font-family="monospace" font-size="10">├── mcp-config.json</text>
    <text x="-240" y="55" fill="#34d399" font-family="monospace" font-size="10">└── skills/</text>
    <text x="-220" y="55" fill="#94a3b8" font-family="monospace" font-size="10">├── proposal.skill</text>
    <text x="-220" y="55" fill="#94a3b8" font-family="monospace" font-size="10" dx="130">└── daily-brief.skill</text>
  </g>

  <!-- Key insight -->
  <text x="450" y="475" text-anchor="middle" fill="#64748b" font-family="system-ui, sans-serif" font-size="10">技术会迭代，但你的 Markdown 文件可以迁移到任何框架</text>
</svg>