<?xml version="1.0" encoding="UTF-8"?>
<svg xmlns="http://www.w3.org/2000/svg" viewBox="0 0 800 500" width="800" height="500">
  <defs>
    <marker id="arrowhead" markerWidth="10" markerHeight="10" refX="9" refY="3" orient="auto">
      <polygon points="0 0, 10 3, 0 6" fill="#666"/>
    </marker>
    <style>
      .box { fill: #4A90D9; stroke: #2E5C8A; stroke-width: 2; }
      .box-secondary { fill: #7CB342; stroke: #558B2F; stroke-width: 2; }
      .box-tertiary { fill: #AB47BC; stroke: #7B1FA2; stroke-width: 2; }
      .label { fill: white; font-family: Arial, sans-serif; font-size: 14px; text-anchor: middle; }
      .arrow { stroke: #666; stroke-width: 2; fill: none; marker-end: url(#arrowhead); }
      .title { fill: #333; font-family: Arial, sans-serif; font-size: 18px; font-weight: bold; text-anchor: middle; }
    </style>
  </defs>

  <!-- Title -->
  <text x="400" y="30" class="title">OpenClaw + Opik 系统架构</text>

  <!-- User -->
  <rect x="50" y="80" width="100" height="60" rx="5" class="box"/>
  <text x="100" y="115" class="label">用户</text>

  <!-- OpenClaw Gateway -->
  <rect x="250" y="80" width="150" height="60" rx="5" class="box-secondary"/>
  <text x="325" y="105" class="label">OpenClaw Gateway</text>
  <text x="325" y="125" class="label" style="font-size: 10px;">(接收消息)</text>

  <!-- Agent Core -->
  <rect x="250" y="200" width="150" height="60" rx="5" class="box-secondary"/>
  <text x="325" y="225" class="label">Agent Core</text>
  <text x="325" y="245" class="label" style="font-size: 10px;">(执行逻辑)</text>

  <!-- Opik Plugin -->
  <rect x="250" y="320" width="150" height="60" rx="5" class="box-tertiary"/>
  <text x="325" y="345" class="label">@opik/opik-openclaw</text>
  <text x="325" y="365" class="label" style="font-size: 10px;">(事件监听)</text>

  <!-- Opik Platform -->
  <rect x="550" y="200" width="180" height="120" rx="5" class="box"/>
  <text x="640" y="245" class="label">Opik Platform</text>
  <text x="640" y="270" class="label" style="font-size: 11px;">• Trace 追踪</text>
  <text x="640" y="290" class="label" style="font-size: 11px;">• Span 分析</text>
  <text x="640" y="310" class="label" style="font-size: 11px;">• 成本监控</text>

  <!-- Developer -->
  <rect x="550" y="380" width="180" height="60" rx="5" class="box"/>
  <text x="640" y="415" class="label">开发者</text>
  <text x="640" y="435" class="label" style="font-size: 10px;">(Dashboard 查看)</text>

  <!-- Arrows -->
  <line x1="150" y1="110" x2="250" y2="110" class="arrow"/>
  <line x1="325" y1="140" x2="325" y2="200" class="arrow"/>
  <line x1="325" y1="260" x2="325" y2="320" class="arrow"/>
  <line x1="400" y1="350" x2="550" y2="260" class="arrow"/>
  <line x1="640" y1="320" x2="640" y2="380" class="arrow"/>
</svg>