<?xml version="1.0" encoding="UTF-8"?>
<svg xmlns="http://www.w3.org/2000/svg" viewBox="0 0 800 500" width="800" height="500">
  <defs>
    <style>
      .panel { fill: white; stroke: #DDD; stroke-width: 1; rx: 5; }
      .panel-header { fill: #F5F5F5; stroke: #DDD; stroke-width: 1; }
      .metric-value { fill: #1976D2; font-family: Arial, sans-serif; font-size: 24px; font-weight: bold; }
      .metric-label { fill: #666; font-family: Arial, sans-serif; font-size: 12px; }
      .chart-bar { fill: #4A90D9; }
      .title { fill: #333; font-family: Arial, sans-serif; font-size: 16px; font-weight: bold; }
      .alert { fill: #F44336; font-family: Arial, sans-serif; font-size: 12px; }
    </style>
  </defs>

  <!-- Title -->
  <text x="400" y="30" style="text-anchor: middle; font-size: 18px; font-weight: bold; fill: #333;">Opik Dashboard 示例</text>

  <!-- Top metrics panel -->
  <rect x="50" y="60" width="700" height="100" class="panel"/>
  <rect x="50" y="60" width="700" height="30" class="panel-header"/>
  <text x="70" y="80" style="fill: #333; font-size: 14px; font-weight: bold;">关键指标</text>

  <!-- Metrics -->
  <text x="100" y="110" style="text-anchor: middle; fill: #1976D2; font-size: 24px; font-weight: bold;">1,234</text>
  <text x="100" y="135" style="text-anchor: middle; fill: #666; font-size: 12px;">Total Traces</text>

  <text x="250" y="110" style="text-anchor: middle; fill: #1976D2; font-size: 24px; font-weight: bold;">2.3%</text>
  <text x="250" y="135" style="text-anchor: middle; fill: #666; font-size: 12px;">Error Rate</text>

  <text x="400" y="110" style="text-anchor: middle; fill: #1976D2; font-size: 24px; font-weight: bold;">1.8s</text>
  <text x="400" y="135" style="text-anchor: middle; fill: #666; font-size: 12px;">Avg Duration</text>

  <text x="550" y="110" style="text-anchor: middle; fill: #1976D2; font-size: 24px; font-weight: bold;">$234</text>
  <text x="550" y="135" style="text-anchor: middle; fill: #666; font-size: 12px;">Total Cost</text>

  <text x="700" y="110" style="text-anchor: middle; fill: #1976D2; font-size: 24px; font-weight: bold;">45.2K</text>
  <text x="700" y="135" style="text-anchor: middle; fill: #666; font-size: 12px;">Token Usage</text>

  <!-- Chart panel -->
  <rect x="50" y="180" width="400" height="280" class="panel"/>
  <rect x="50" y="180" width="400" height="30" class="panel-header"/>
  <text x="70" y="200" style="fill: #333; font-size: 14px; font-weight: bold;">Token 使用趋势</text>

  <!-- Bar chart -->
  <rect x="90" y="400" width="35" height="-60" class="chart-bar"/>
  <text x="107" y="455" style="text-anchor: middle; fill: #666; font-size: 10px;">Mon</text>

  <rect x="135" y="380" width="35" height="-80" class="chart-bar"/>
  <text x="152" y="455" style="text-anchor: middle; fill: #666; font-size: 10px;">Tue</text>

  <rect x="180" y="415" width="35" height="-45" class="chart-bar"/>
  <text x="197" y="455" style="text-anchor: middle; fill: #666; font-size: 10px;">Wed</text>

  <rect x="225" y="370" width="35" height="-90" class="chart-bar"/>
  <text x="242" y="455" style="text-anchor: middle; fill: #666; font-size: 10px;">Thu</text>

  <rect x="270" y="390" width="35" height="-70" class="chart-bar"/>
  <text x="287" y="455" style="text-anchor: middle; fill: #666; font-size: 10px;">Fri</text>

  <rect x="315" y="375" width="35" height="-85" class="chart-bar"/>
  <text x="332" y="455" style="text-anchor: middle; fill: #666; font-size: 10px;">Sat</text>

  <rect x="360" y="395" width="35" height="-65" class="chart-bar"/>
  <text x="377" y="455" style="text-anchor: middle; fill: #666; font-size: 10px;">Sun</text>

  <!-- Alerts panel -->
  <rect x="470" y="180" width="280" height="130" class="panel"/>
  <rect x="470" y="180" width="280" height="30" class="panel-header"/>
  <text x="490" y="200" style="fill: #333; font-size: 14px; font-weight: bold;">活动告警</text>

  <text x="490" y="230" style="fill: #F44336; font-size: 12px;">⚠ 高错误率 (5.2%)</text>
  <text x="490" y="255" style="fill: #F44336; font-size: 12px;">⚠ 成本接近预算 (85%)</text>
  <text x="490" y="280" style="fill: #4CAF50; font-size: 12px;">✓ 系统运行正常</text>

  <!-- Recent traces panel -->
  <rect x="470" y="320" width="280" height="140" class="panel"/>
  <rect x="470" y="320" width="280" height="30" class="panel-header"/>
  <text x="490" y="340" style="fill: #333; font-size: 14px; font-weight: bold;">最近 Trace</text>

  <text x="490" y="365" style="fill: #333; font-size: 11px;">#abc123  success  1.2s</text>
  <text x="490" y="385" style="fill: #333; font-size: 11px;">#def456  error  3.5s</text>
  <text x="490" y="405" style="fill: #333; font-size: 11px;">#ghi789  success  0.8s</text>
  <text x="490" y="425" style="fill: #333; font-size: 11px;">#jkl012  success  2.1s</text>
</svg>