<?xml version="1.0" encoding="UTF-8"?>
<svg xmlns="http://www.w3.org/2000/svg" viewBox="0 0 700 600" width="700" height="600">
  <defs>
    <marker id="arrowhead" markerWidth="10" markerHeight="10" refX="9" refY="3" orient="auto">
      <polygon points="0 0, 10 3, 0 6" fill="#1976D2"/>
    </marker>
    <style>
      .step { fill: #E3F2FD; stroke: #1976D2; stroke-width: 2; rx: 5; }
      .step-highlight { fill: #FFF3E0; stroke: #F57C00; stroke-width: 2; rx: 5; }
      .label { fill: #333; font-family: Arial, sans-serif; font-size: 13px; text-anchor: middle; }
      .event { fill: #7B1FA2; font-family: Arial, sans-serif; font-size: 11px; text-anchor: middle; }
      .arrow { stroke: #1976D2; stroke-width: 2; fill: none; marker-end: url(#arrowhead); }
      .title { fill: #333; font-family: Arial, sans-serif; font-size: 18px; font-weight: bold; text-anchor: middle; }
    </style>
  </defs>

  <!-- Title -->
  <text x="350" y="30" class="title">Trace 生命周期流程</text>

  <!-- Steps -->
  <rect x="230" y="50" width="240" height="40" class="step-highlight"/>
  <text x="350" y="75" class="label">用户消息</text>

  <line x1="350" y1="90" x2="350" y2="120" class="arrow"/>
  <text x="490" y="110" class="event">[llm_input]</text>

  <rect x="230" y="120" width="240" height="40" class="step"/>
  <text x="350" y="145" class="label">创建 Trace + LLM Span</text>

  <line x1="350" y1="160" x2="350" y2="190" class="arrow"/>
  <text x="490" y="180" class="event">[before_tool_call]</text>

  <rect x="230" y="190" width="240" height="40" class="step"/>
  <text x="350" y="215" class="label">创建 Tool Span</text>

  <line x1="350" y1="230" x2="350" y2="260" class="arrow"/>
  <text x="490" y="250" class="event">[after_tool_call]</text>

  <rect x="230" y="260" width="240" height="40" class="step"/>
  <text x="350" y="285" class="label">完成 Tool Span</text>

  <line x1="350" y1="300" x2="350" y2="330" class="arrow"/>
  <text x="490" y="320" class="event">[llm_output]</text>

  <rect x="230" y="330" width="240" height="40" class="step"/>
  <text x="350" y="350" class="label">完成 LLM Span</text>
  <text x="350" y="365" class="label" style="font-size: 11px;">(记录 Token/成本)</text>

  <line x1="350" y1="370" x2="350" y2="400" class="arrow"/>
  <text x="490" y="390" class="event">[agent_end]</text>

  <rect x="230" y="400" width="240" height="40" class="step"/>
  <text x="350" y="425" class="label">关闭所有 Span + Trace</text>

  <line x1="350" y1="440" x2="350" y2="470" class="arrow"/>
  <text x="490" y="460" class="event">[flush]</text>

  <rect x="230" y="470" width="240" height="40" class="step"/>
  <text x="350" y="495" class="label">数据发送到 Opik</text>
</svg>